<svg xmlns="http://www.w3.org/2000/svg" xmlns:xlink="http://www.w3.org/1999/xlink" width="30" height="30" viewBox="0 0 30 30">
  <defs>
    <style>
      .cls-1 {
        fill: url(#linear-gradient);
      }

      .cls-2 {
        fill: none;
      }

      .cls-3 {
        fill: #fff;
      }
    </style>
    <linearGradient id="linear-gradient" x1="0.173" y1="0.138" x2="0.848" y2="0.849" gradientUnits="objectBoundingBox">
      <stop offset="0" stop-color="#04afaa"/>
      <stop offset="1" stop-color="#0cc"/>
    </linearGradient>
  </defs>
  <g id="addwii_logo" transform="translate(-12815 -3283)">
    <circle id="Ellipse_1024" data-name="Ellipse 1024" class="cls-1" cx="15" cy="15" r="15" transform="translate(12815 3283)"/>
    <g id="Group_3536" data-name="Group 3536" transform="translate(12817.986 3292.031)">
      <rect id="Rectangle_2628" data-name="Rectangle 2628" class="cls-2" width="23.879" height="11.94"/>
      <g id="Group_3531" data-name="Group 3531" transform="translate(0.896 1.492)">
        <path id="Path_3497" data-name="Path 3497" class="cls-3" d="M152.83,317.283a1.26,1.26,0,0,1-1.2-.9.33.33,0,0,1-.01-.039l-1.828-6.936a.28.28,0,0,0-.534.009l-1.828,6.941a1.257,1.257,0,0,1-2.416.025.333.333,0,0,1-.01-.039L143,308.782a.5.5,0,0,1,.347-.611.492.492,0,0,1,.6.353l2,7.574a.28.28,0,0,0,.534-.013l1.827-6.942a1.257,1.257,0,0,1,2.416-.024l.006.021,1.834,6.959a.28.28,0,0,0,.534-.013l1.992-7.561a.492.492,0,0,1,.474-.369h1.669a.5.5,0,0,1,0,1h-1.293l-1.9,7.211A1.265,1.265,0,0,1,152.83,317.283Z" transform="translate(-135.342 -308.154)"/>
        <path id="Path_3498" data-name="Path 3498" class="cls-3" d="M142.143,317.362a.493.493,0,0,1-.474-.37l-2-7.574a.28.28,0,0,0-.533.014l-1.993,7.56a.492.492,0,0,1-.474.37H135a.5.5,0,0,1,0-1H136.3l1.9-7.21a1.257,1.257,0,0,1,2.416-.024.331.331,0,0,1,.01.039l1.994,7.565a.5.5,0,0,1-.347.611A.492.492,0,0,1,142.143,317.362Z" transform="translate(-134.512 -308.165)"/>
      </g>
    </g>
  </g>
</svg>
